<mxfile host="app.diagrams.net" agent="Mozilla/5.0 (Windows NT 10.0; Win64; x64) AppleWebKit/537.36 (KHTML, like Gecko) Chrome/129.0.0.0 Safari/537.36" version="24.7.17">
  <diagram name="Page-1" id="kSwZBpBndubL0PWONkEq">
    <mxGraphModel dx="1572" dy="-438" grid="1" gridSize="10" guides="1" tooltips="1" connect="1" arrows="1" fold="1" page="1" pageScale="1" pageWidth="850" pageHeight="1100" math="0" shadow="0">
      <root>
        <mxCell id="0" />
        <mxCell id="1" parent="0" />
        <mxCell id="rTS5UrFBCIcpq6L8_h2i-1" style="edgeStyle=none;shape=flexArrow;rounded=1;jumpStyle=line;orthogonalLoop=1;jettySize=auto;html=1;shadow=0;strokeColor=#000000;strokeWidth=1;align=center;verticalAlign=middle;spacing=5;fontFamily=Helvetica;fontSize=12;fontColor=default;fontStyle=0;labelBorderColor=none;labelBackgroundColor=none;resizable=1;startSize=3;endArrow=classic;endSize=5;flowAnimation=0;fillColor=#CCCCFF;gradientColor=#9999BF;gradientDirection=east;endWidth=6.8965517241379315;noJump=1;ignoreEdge=1;comic=0;linecap=round;orthogonal=0;backgroundOutline=0;snapToPoint=0;arcSize=20;sourcePerimeterSpacing=16;entryX=0;entryY=0.5;entryDx=0;entryDy=0;width=3;exitX=1;exitY=0.25;exitDx=0;exitDy=0;entryPerimeter=0;opacity=50;spacingLeft=0;movable=1;rotatable=1;deletable=1;editable=1;locked=0;connectable=1;" edge="1" parent="1" source="rTS5UrFBCIcpq6L8_h2i-15" target="rTS5UrFBCIcpq6L8_h2i-35">
          <mxGeometry relative="1" as="geometry">
            <mxPoint x="579.78" y="1125.95" as="sourcePoint" />
            <mxPoint x="450" y="1385" as="targetPoint" />
          </mxGeometry>
        </mxCell>
        <mxCell id="rTS5UrFBCIcpq6L8_h2i-2" value="asfd" style="shape=table;startSize=0;container=1;collapsible=1;childLayout=tableLayout;fixedRows=1;rowLines=0;fontStyle=0;align=center;resizeLast=1;html=1;swimlaneLine=1;rounded=0;strokeWidth=1;labelBorderColor=none;points=[[0,0,0,0,0],[0,0.25,0,0,0],[0,0.5,0,0,0],[0,0.75,0,0,0],[0,1,0,0,0],[0.25,0,0,0,0],[0.25,1,0,0,0],[0.5,0,0,0,0],[0.5,1,0,0,0],[0.75,0,0,0,0],[0.75,1,0,0,0],[0.9,0.5,0,0,0],[1,0,0,0,0],[1,0.25,0,0,0],[1,0.75,0,0,0],[1,1,0,0,0]];fillColor=#000000;swimlaneFillColor=none;movable=1;resizable=1;rotatable=1;deletable=1;editable=1;locked=0;connectable=1;" vertex="1" parent="1">
          <mxGeometry x="416" y="1574" width="110" height="52" as="geometry" />
        </mxCell>
        <mxCell id="rTS5UrFBCIcpq6L8_h2i-3" value="" style="shape=tableRow;horizontal=0;startSize=0;swimlaneHead=0;swimlaneBody=0;collapsible=0;dropTarget=0;points=[[0,0.5],[1,0.5]];portConstraint=eastwest;top=0;left=0;right=0;bottom=1;swimlaneLine=0;perimeterSpacing=2;fillStyle=hatch;fillColor=none;movable=1;resizable=1;rotatable=1;deletable=1;editable=1;locked=0;connectable=1;" vertex="1" parent="rTS5UrFBCIcpq6L8_h2i-2">
          <mxGeometry width="110" height="20" as="geometry" />
        </mxCell>
        <mxCell id="rTS5UrFBCIcpq6L8_h2i-4" value="" style="shape=partialRectangle;connectable=1;top=0;left=0;bottom=0;right=0;fontStyle=1;overflow=hidden;whiteSpace=wrap;html=1;gradientDirection=radial;fillStyle=auto;movable=1;resizable=1;rotatable=1;deletable=1;editable=1;locked=0;" vertex="1" parent="rTS5UrFBCIcpq6L8_h2i-3">
          <mxGeometry width="30" height="20" as="geometry">
            <mxRectangle width="30" height="20" as="alternateBounds" />
          </mxGeometry>
        </mxCell>
        <mxCell id="rTS5UrFBCIcpq6L8_h2i-5" value="" style="shape=partialRectangle;connectable=1;fillColor=#003366;top=0;left=0;bottom=0;right=0;align=center;spacingLeft=0;fontStyle=1;overflow=hidden;strokeColor=#000000;html=1;whiteSpace=wrap;labelBackgroundColor=none;verticalAlign=middle;fontFamily=Helvetica;fontSize=12;fontColor=#ffffff;labelBorderColor=none;gradientColor=#66B2FF;strokeWidth=2;perimeterSpacing=2;shadow=0;dashed=1;movable=1;resizable=1;rotatable=1;deletable=1;editable=1;locked=0;" vertex="1" parent="rTS5UrFBCIcpq6L8_h2i-3">
          <mxGeometry x="30" width="80" height="20" as="geometry">
            <mxRectangle width="80" height="20" as="alternateBounds" />
          </mxGeometry>
        </mxCell>
        <mxCell id="rTS5UrFBCIcpq6L8_h2i-6" style="shape=tableRow;horizontal=0;startSize=0;swimlaneHead=0;swimlaneBody=0;fillColor=none;collapsible=0;dropTarget=0;points=[[0,0.5],[1,0.5]];portConstraint=eastwest;top=0;left=0;right=0;bottom=0;movable=1;resizable=1;rotatable=1;deletable=1;editable=1;locked=0;connectable=1;" vertex="1" parent="rTS5UrFBCIcpq6L8_h2i-2">
          <mxGeometry y="20" width="110" height="32" as="geometry" />
        </mxCell>
        <mxCell id="rTS5UrFBCIcpq6L8_h2i-7" value="" style="shape=partialRectangle;connectable=1;fillColor=#CC0000;top=0;left=0;bottom=0;right=0;editable=1;overflow=hidden;whiteSpace=wrap;html=1;flipV=0;flipH=0;textDirection=ltr;horizontal=0;strokeColor=default;align=center;verticalAlign=middle;fontFamily=Helvetica;fontSize=12;fontColor=#FFFFFF;labelBackgroundColor=none;gradientColor=#FFCCCC;gradientDirection=east;movable=1;resizable=1;rotatable=1;deletable=1;locked=0;" vertex="1" parent="rTS5UrFBCIcpq6L8_h2i-6">
          <mxGeometry width="30" height="32" as="geometry">
            <mxRectangle width="30" height="32" as="alternateBounds" />
          </mxGeometry>
        </mxCell>
        <mxCell id="rTS5UrFBCIcpq6L8_h2i-8" style="shape=partialRectangle;connectable=1;top=0;left=0;bottom=0;right=0;align=center;spacingLeft=6;overflow=hidden;whiteSpace=wrap;html=1;fillColor=#FFA3CE;strokeColor=default;fillStyle=solid;movable=1;resizable=1;rotatable=1;deletable=1;editable=1;locked=0;gradientColor=#C981A3;rounded=1;shadow=0;strokeWidth=2;verticalAlign=middle;fontFamily=Helvetica;fontSize=12;fontColor=default;fontStyle=0;gradientDirection=south;" vertex="1" parent="rTS5UrFBCIcpq6L8_h2i-6">
          <mxGeometry x="30" width="80" height="32" as="geometry">
            <mxRectangle width="80" height="32" as="alternateBounds" />
          </mxGeometry>
        </mxCell>
        <mxCell id="rTS5UrFBCIcpq6L8_h2i-9" value="asfd" style="shape=table;startSize=0;container=1;collapsible=1;childLayout=tableLayout;fixedRows=1;rowLines=0;fontStyle=0;align=center;resizeLast=1;html=1;swimlaneLine=1;rounded=0;strokeWidth=1;labelBorderColor=none;points=[[0,0,0,0,0],[0,0.25,0,0,0],[0,0.5,0,0,0],[0,0.75,0,0,0],[0,1,0,0,0],[0.25,0,0,0,0],[0.25,1,0,0,0],[0.5,0,0,0,0],[0.5,1,0,0,0],[0.75,0,0,0,0],[0.75,1,0,0,0],[0.9,0.5,0,0,0],[1,0,0,0,0],[1,0.25,0,0,0],[1,0.75,0,0,0],[1,1,0,0,0]];fillColor=#000000;swimlaneFillColor=none;movable=1;resizable=1;rotatable=1;deletable=1;editable=1;locked=0;connectable=1;" vertex="1" parent="1">
          <mxGeometry x="416" y="1376" width="110" height="56" as="geometry" />
        </mxCell>
        <mxCell id="rTS5UrFBCIcpq6L8_h2i-10" value="" style="shape=tableRow;horizontal=0;startSize=0;swimlaneHead=0;swimlaneBody=0;collapsible=0;dropTarget=0;points=[[0,0.5],[1,0.5]];portConstraint=eastwest;top=0;left=0;right=0;bottom=1;swimlaneLine=0;perimeterSpacing=2;fillStyle=hatch;fillColor=none;movable=1;resizable=1;rotatable=1;deletable=1;editable=1;locked=0;connectable=1;" vertex="1" parent="rTS5UrFBCIcpq6L8_h2i-9">
          <mxGeometry width="110" height="20" as="geometry" />
        </mxCell>
        <mxCell id="rTS5UrFBCIcpq6L8_h2i-11" value="" style="shape=partialRectangle;connectable=1;top=0;left=0;bottom=0;right=0;fontStyle=1;overflow=hidden;whiteSpace=wrap;html=1;gradientDirection=radial;fillStyle=auto;movable=1;resizable=1;rotatable=1;deletable=1;editable=1;locked=0;" vertex="1" parent="rTS5UrFBCIcpq6L8_h2i-10">
          <mxGeometry width="30" height="20" as="geometry">
            <mxRectangle width="30" height="20" as="alternateBounds" />
          </mxGeometry>
        </mxCell>
        <mxCell id="rTS5UrFBCIcpq6L8_h2i-12" value="" style="shape=partialRectangle;connectable=1;fillColor=#003366;top=0;left=0;bottom=0;right=0;align=center;spacingLeft=0;fontStyle=1;overflow=hidden;strokeColor=#000000;html=1;whiteSpace=wrap;labelBackgroundColor=none;verticalAlign=middle;fontFamily=Helvetica;fontSize=12;fontColor=#ffffff;labelBorderColor=none;gradientColor=#66B2FF;strokeWidth=2;perimeterSpacing=2;shadow=0;dashed=1;movable=1;resizable=1;rotatable=1;deletable=1;editable=1;locked=0;" vertex="1" parent="rTS5UrFBCIcpq6L8_h2i-10">
          <mxGeometry x="30" width="80" height="20" as="geometry">
            <mxRectangle width="80" height="20" as="alternateBounds" />
          </mxGeometry>
        </mxCell>
        <mxCell id="rTS5UrFBCIcpq6L8_h2i-13" style="shape=tableRow;horizontal=0;startSize=0;swimlaneHead=0;swimlaneBody=0;fillColor=none;collapsible=0;dropTarget=0;points=[[0,0.5],[1,0.5]];portConstraint=eastwest;top=0;left=0;right=0;bottom=0;movable=1;resizable=1;rotatable=1;deletable=1;editable=1;locked=0;connectable=1;" vertex="1" parent="rTS5UrFBCIcpq6L8_h2i-9">
          <mxGeometry y="20" width="110" height="36" as="geometry" />
        </mxCell>
        <mxCell id="rTS5UrFBCIcpq6L8_h2i-14" value="" style="shape=partialRectangle;connectable=1;fillColor=#CC0000;top=0;left=0;bottom=0;right=0;editable=1;overflow=hidden;whiteSpace=wrap;html=1;flipV=0;flipH=0;textDirection=ltr;horizontal=0;strokeColor=default;align=center;verticalAlign=middle;fontFamily=Helvetica;fontSize=12;fontColor=#FFFFFF;labelBackgroundColor=none;gradientColor=#FFCCCC;gradientDirection=east;movable=1;resizable=1;rotatable=1;deletable=1;locked=0;" vertex="1" parent="rTS5UrFBCIcpq6L8_h2i-13">
          <mxGeometry width="30" height="36" as="geometry">
            <mxRectangle width="30" height="36" as="alternateBounds" />
          </mxGeometry>
        </mxCell>
        <mxCell id="rTS5UrFBCIcpq6L8_h2i-15" style="shape=partialRectangle;connectable=1;top=0;left=0;bottom=0;right=0;align=center;spacingLeft=0;overflow=hidden;whiteSpace=wrap;html=1;fillColor=#CCCCFF;strokeColor=#000000;fillStyle=solid;movable=1;resizable=1;rotatable=1;deletable=1;editable=1;locked=0;gradientColor=#9999BF;rounded=1;strokeWidth=1;verticalAlign=middle;fontFamily=Helvetica;fontSize=12;fontColor=default;fontStyle=0;gradientDirection=south;" vertex="1" parent="rTS5UrFBCIcpq6L8_h2i-13">
          <mxGeometry x="30" width="80" height="36" as="geometry">
            <mxRectangle width="80" height="36" as="alternateBounds" />
          </mxGeometry>
        </mxCell>
        <mxCell id="rTS5UrFBCIcpq6L8_h2i-16" value="asfd" style="shape=table;startSize=0;container=1;collapsible=1;childLayout=tableLayout;fixedRows=1;rowLines=0;fontStyle=0;align=center;resizeLast=1;html=1;swimlaneLine=1;rounded=0;strokeWidth=1;labelBorderColor=none;points=[[0,0,0,0,0],[0,0.25,0,0,0],[0,0.5,0,0,0],[0,0.75,0,0,0],[0,1,0,0,0],[0.25,0,0,0,0],[0.25,1,0,0,0],[0.5,0,0,0,0],[0.5,1,0,0,0],[0.75,0,0,0,0],[0.75,1,0,0,0],[0.9,0.5,0,0,0],[1,0,0,0,0],[1,0.25,0,0,0],[1,0.75,0,0,0],[1,1,0,0,0]];fillColor=#000000;swimlaneFillColor=none;movable=1;resizable=1;rotatable=1;deletable=1;editable=1;locked=0;connectable=1;" vertex="1" parent="1">
          <mxGeometry x="416" y="1498" width="110" height="66" as="geometry" />
        </mxCell>
        <mxCell id="rTS5UrFBCIcpq6L8_h2i-17" value="" style="shape=tableRow;horizontal=0;startSize=0;swimlaneHead=0;swimlaneBody=0;collapsible=0;dropTarget=0;points=[[0,0.5],[1,0.5]];portConstraint=eastwest;top=0;left=0;right=0;bottom=1;swimlaneLine=0;perimeterSpacing=2;fillStyle=hatch;fillColor=none;movable=1;resizable=1;rotatable=1;deletable=1;editable=1;locked=0;connectable=1;" vertex="1" parent="rTS5UrFBCIcpq6L8_h2i-16">
          <mxGeometry width="110" height="20" as="geometry" />
        </mxCell>
        <mxCell id="rTS5UrFBCIcpq6L8_h2i-18" value="" style="shape=partialRectangle;connectable=1;top=0;left=0;bottom=0;right=0;fontStyle=1;overflow=hidden;whiteSpace=wrap;html=1;gradientDirection=radial;fillStyle=auto;movable=1;resizable=1;rotatable=1;deletable=1;editable=1;locked=0;" vertex="1" parent="rTS5UrFBCIcpq6L8_h2i-17">
          <mxGeometry width="30" height="20" as="geometry">
            <mxRectangle width="30" height="20" as="alternateBounds" />
          </mxGeometry>
        </mxCell>
        <mxCell id="rTS5UrFBCIcpq6L8_h2i-19" value="" style="shape=partialRectangle;connectable=1;fillColor=#003366;top=0;left=0;bottom=0;right=0;align=center;spacingLeft=0;fontStyle=1;overflow=hidden;strokeColor=#000000;html=1;whiteSpace=wrap;labelBackgroundColor=none;verticalAlign=middle;fontFamily=Helvetica;fontSize=12;fontColor=#ffffff;labelBorderColor=none;gradientColor=#66B2FF;strokeWidth=2;perimeterSpacing=2;shadow=0;dashed=1;movable=1;resizable=1;rotatable=1;deletable=1;editable=1;locked=0;" vertex="1" parent="rTS5UrFBCIcpq6L8_h2i-17">
          <mxGeometry x="30" width="80" height="20" as="geometry">
            <mxRectangle width="80" height="20" as="alternateBounds" />
          </mxGeometry>
        </mxCell>
        <mxCell id="rTS5UrFBCIcpq6L8_h2i-20" style="shape=tableRow;horizontal=0;startSize=0;swimlaneHead=0;swimlaneBody=0;fillColor=none;collapsible=0;dropTarget=0;points=[[0,0.5,0,0,0],[0.95,0.5,0,0,0]];portConstraint=eastwest;top=0;left=0;right=0;bottom=0;movable=1;resizable=1;rotatable=1;deletable=1;editable=1;locked=0;connectable=1;" vertex="1" parent="rTS5UrFBCIcpq6L8_h2i-16">
          <mxGeometry y="20" width="110" height="46" as="geometry" />
        </mxCell>
        <mxCell id="rTS5UrFBCIcpq6L8_h2i-21" value="" style="shape=partialRectangle;connectable=1;fillColor=#CC0000;top=0;left=0;bottom=0;right=0;editable=1;overflow=hidden;whiteSpace=wrap;html=1;flipV=0;flipH=0;textDirection=ltr;horizontal=0;strokeColor=default;align=center;verticalAlign=middle;fontFamily=Helvetica;fontSize=12;fontColor=#FFFFFF;labelBackgroundColor=none;gradientColor=#FFCCCC;gradientDirection=east;movable=1;resizable=1;rotatable=1;deletable=1;locked=0;" vertex="1" parent="rTS5UrFBCIcpq6L8_h2i-20">
          <mxGeometry width="30" height="46" as="geometry">
            <mxRectangle width="30" height="46" as="alternateBounds" />
          </mxGeometry>
        </mxCell>
        <mxCell id="rTS5UrFBCIcpq6L8_h2i-22" style="shape=partialRectangle;connectable=1;top=0;left=0;bottom=0;right=0;align=center;spacingLeft=6;overflow=hidden;whiteSpace=wrap;html=1;fillColor=#B3FF66;strokeColor=#000000;fillStyle=solid;movable=1;resizable=1;rotatable=1;deletable=1;editable=1;locked=0;gradientColor=#79AB44;rounded=1;shadow=0;strokeWidth=2;verticalAlign=middle;fontFamily=Helvetica;fontSize=12;fontColor=default;fontStyle=0;gradientDirection=south;" vertex="1" parent="rTS5UrFBCIcpq6L8_h2i-20">
          <mxGeometry x="30" width="80" height="46" as="geometry">
            <mxRectangle width="80" height="46" as="alternateBounds" />
          </mxGeometry>
        </mxCell>
        <mxCell id="rTS5UrFBCIcpq6L8_h2i-23" style="edgeStyle=none;shape=flexArrow;rounded=1;jumpStyle=line;orthogonalLoop=1;jettySize=auto;html=1;shadow=0;strokeColor=#000000;strokeWidth=2;align=center;verticalAlign=middle;spacing=5;fontFamily=Helvetica;fontSize=12;fontColor=default;fontStyle=0;labelBorderColor=none;labelBackgroundColor=none;resizable=1;startSize=3;endArrow=classic;endSize=5;flowAnimation=0;fillColor=#B3FF66;gradientColor=#79AB44;gradientDirection=east;endWidth=6.8965517241379315;noJump=1;ignoreEdge=1;comic=0;linecap=round;orthogonal=0;backgroundOutline=0;snapToPoint=0;arcSize=20;sourcePerimeterSpacing=16;width=3;opacity=50;spacingLeft=6;entryX=0;entryY=0.5;entryDx=0;entryDy=0;entryPerimeter=0;exitX=1;exitY=0.5;exitDx=0;exitDy=0;movable=1;rotatable=1;deletable=1;editable=1;locked=0;connectable=1;" edge="1" parent="1" source="rTS5UrFBCIcpq6L8_h2i-22" target="rTS5UrFBCIcpq6L8_h2i-33">
          <mxGeometry relative="1" as="geometry">
            <mxPoint x="520" y="1534" as="sourcePoint" />
            <mxPoint x="379.99599999999987" y="1528.522" as="targetPoint" />
          </mxGeometry>
        </mxCell>
        <mxCell id="rTS5UrFBCIcpq6L8_h2i-24" style="edgeStyle=none;shape=flexArrow;rounded=1;jumpStyle=line;orthogonalLoop=1;jettySize=auto;html=1;shadow=0;strokeColor=#996185;strokeWidth=2;align=center;verticalAlign=middle;spacing=5;fontFamily=Helvetica;fontSize=12;fontColor=default;fontStyle=0;labelBorderColor=none;labelBackgroundColor=none;resizable=1;startSize=3;endArrow=classic;endSize=5;flowAnimation=0;fillColor=#FFA3CE;gradientColor=#C981A3;gradientDirection=east;endWidth=6.8965517241379315;noJump=1;ignoreEdge=1;comic=0;linecap=round;orthogonal=0;backgroundOutline=0;snapToPoint=0;arcSize=20;sourcePerimeterSpacing=16;width=3;opacity=75;spacingLeft=6;entryX=0;entryY=0.5;entryDx=0;entryDy=0;entryPerimeter=0;exitX=1;exitY=0.5;exitDx=0;exitDy=0;movable=1;rotatable=1;deletable=1;editable=1;locked=0;connectable=1;" edge="1" parent="1" source="rTS5UrFBCIcpq6L8_h2i-8" target="rTS5UrFBCIcpq6L8_h2i-34">
          <mxGeometry relative="1" as="geometry">
            <mxPoint x="536" y="1610" as="sourcePoint" />
            <mxPoint x="622" y="1610" as="targetPoint" />
          </mxGeometry>
        </mxCell>
        <mxCell id="rTS5UrFBCIcpq6L8_h2i-25" style="edgeStyle=none;shape=flexArrow;rounded=1;jumpStyle=line;orthogonalLoop=1;jettySize=auto;html=1;shadow=1;strokeColor=#666666;strokeWidth=1;align=center;verticalAlign=middle;spacing=5;fontFamily=Helvetica;fontSize=12;fontColor=default;fontStyle=1;labelBorderColor=none;labelBackgroundColor=none;resizable=1;startSize=3;endArrow=classic;endSize=5;flowAnimation=0;fillColor=#f5f5f5;gradientColor=#b3b3b3;gradientDirection=east;endWidth=6.8965517241379315;noJump=1;ignoreEdge=1;comic=0;linecap=round;orthogonal=0;backgroundOutline=0;snapToPoint=0;arcSize=20;sourcePerimeterSpacing=16;entryX=0;entryY=0.5;entryDx=0;entryDy=0;width=3;entryPerimeter=0;opacity=50;movable=1;rotatable=1;deletable=1;editable=1;locked=0;connectable=1;" edge="1" parent="1" target="rTS5UrFBCIcpq6L8_h2i-31">
          <mxGeometry relative="1" as="geometry">
            <mxPoint x="730" y="1600" as="sourcePoint" />
            <mxPoint x="828" y="1509.5" as="targetPoint" />
          </mxGeometry>
        </mxCell>
        <mxCell id="rTS5UrFBCIcpq6L8_h2i-26" style="edgeStyle=none;shape=flexArrow;rounded=1;jumpStyle=line;orthogonalLoop=1;jettySize=auto;html=1;shadow=1;strokeColor=#666666;strokeWidth=1;align=center;verticalAlign=middle;spacing=5;fontFamily=Helvetica;fontSize=12;fontColor=default;fontStyle=1;labelBorderColor=none;labelBackgroundColor=none;resizable=1;startSize=3;endArrow=classic;endSize=5;flowAnimation=0;fillColor=#f5f5f5;gradientColor=#b3b3b3;gradientDirection=east;endWidth=6.8965517241379315;noJump=1;ignoreEdge=1;comic=0;linecap=round;orthogonal=0;backgroundOutline=0;snapToPoint=0;arcSize=20;sourcePerimeterSpacing=16;width=3;opacity=50;movable=1;rotatable=1;deletable=1;editable=1;locked=0;connectable=1;" edge="1" parent="1">
          <mxGeometry relative="1" as="geometry">
            <mxPoint x="730" y="1354" as="sourcePoint" />
            <mxPoint x="782" y="1470" as="targetPoint" />
          </mxGeometry>
        </mxCell>
        <mxCell id="rTS5UrFBCIcpq6L8_h2i-27" style="edgeStyle=none;shape=flexArrow;rounded=1;jumpStyle=line;orthogonalLoop=1;jettySize=auto;html=1;shadow=1;strokeColor=#666666;strokeWidth=1;align=center;verticalAlign=middle;spacing=5;fontFamily=Helvetica;fontSize=12;fontColor=default;fontStyle=1;labelBorderColor=none;labelBackgroundColor=none;resizable=1;startSize=3;endArrow=classic;endSize=5;flowAnimation=0;fillColor=#f5f5f5;gradientColor=#b3b3b3;gradientDirection=east;endWidth=6.8965517241379315;noJump=1;ignoreEdge=1;comic=0;linecap=round;orthogonal=0;backgroundOutline=0;snapToPoint=0;arcSize=20;sourcePerimeterSpacing=16;width=3;entryX=0;entryY=0.5;entryDx=0;entryDy=0;entryPerimeter=0;opacity=50;movable=1;rotatable=1;deletable=1;editable=1;locked=0;connectable=1;" edge="1" parent="1" target="rTS5UrFBCIcpq6L8_h2i-31">
          <mxGeometry relative="1" as="geometry">
            <mxPoint x="732" y="1405" as="sourcePoint" />
            <mxPoint x="792" y="1470" as="targetPoint" />
            <Array as="points" />
          </mxGeometry>
        </mxCell>
        <mxCell id="rTS5UrFBCIcpq6L8_h2i-28" style="edgeStyle=none;shape=flexArrow;rounded=1;jumpStyle=line;orthogonalLoop=1;jettySize=auto;html=1;shadow=1;strokeColor=#666666;strokeWidth=1;align=center;verticalAlign=middle;spacing=5;fontFamily=Helvetica;fontSize=12;fontColor=default;fontStyle=1;labelBorderColor=none;labelBackgroundColor=none;resizable=1;startSize=3;endArrow=classic;endSize=5;flowAnimation=0;fillColor=#f5f5f5;gradientColor=#b3b3b3;gradientDirection=east;endWidth=6.8965517241379315;noJump=1;ignoreEdge=1;comic=0;linecap=round;orthogonal=0;backgroundOutline=0;snapToPoint=0;arcSize=20;sourcePerimeterSpacing=16;entryX=0;entryY=0.5;entryDx=0;entryDy=0;width=3;entryPerimeter=0;exitX=0.9;exitY=0.5;exitDx=0;exitDy=0;exitPerimeter=0;opacity=50;movable=1;rotatable=1;deletable=1;editable=1;locked=0;connectable=1;" edge="1" parent="1" source="rTS5UrFBCIcpq6L8_h2i-32" target="rTS5UrFBCIcpq6L8_h2i-31">
          <mxGeometry relative="1" as="geometry">
            <mxPoint x="740" y="1490" as="sourcePoint" />
            <mxPoint x="786" y="1489.5" as="targetPoint" />
          </mxGeometry>
        </mxCell>
        <mxCell id="rTS5UrFBCIcpq6L8_h2i-29" style="edgeStyle=none;shape=flexArrow;rounded=1;jumpStyle=line;orthogonalLoop=1;jettySize=auto;html=1;shadow=1;strokeColor=#666666;strokeWidth=1;align=center;verticalAlign=middle;spacing=5;fontFamily=Helvetica;fontSize=12;fontColor=default;fontStyle=1;labelBorderColor=none;labelBackgroundColor=none;resizable=1;startSize=3;endArrow=classic;endSize=5;flowAnimation=0;fillColor=#f5f5f5;gradientColor=#b3b3b3;gradientDirection=east;endWidth=6.8965517241379315;noJump=1;ignoreEdge=1;comic=0;linecap=round;orthogonal=0;backgroundOutline=0;snapToPoint=0;arcSize=20;sourcePerimeterSpacing=16;entryX=0;entryY=0.5;entryDx=0;entryDy=0;width=3;entryPerimeter=0;opacity=50;movable=1;rotatable=1;deletable=1;editable=1;locked=0;connectable=1;" edge="1" parent="1" target="rTS5UrFBCIcpq6L8_h2i-31">
          <mxGeometry relative="1" as="geometry">
            <mxPoint x="736" y="1532" as="sourcePoint" />
            <mxPoint x="818" y="1499.5" as="targetPoint" />
          </mxGeometry>
        </mxCell>
        <mxCell id="rTS5UrFBCIcpq6L8_h2i-30" value="" style="edgeStyle=none;shape=flexArrow;rounded=1;comic=0;jumpStyle=line;orthogonalLoop=1;jettySize=auto;html=1;shadow=1;strokeColor=#666666;strokeWidth=1;align=center;verticalAlign=middle;spacing=5;arcSize=20;fontFamily=Helvetica;fontSize=12;fontColor=default;fontStyle=1;labelBorderColor=none;labelBackgroundColor=none;resizable=1;startSize=2;endArrow=classic;endSize=4.891666666666667;flowAnimation=0;sourcePerimeterSpacing=16;fillColor=#f5f5f5;gradientColor=#b3b3b3;gradientDirection=east;exitX=1;exitY=0.5;exitDx=0;exitDy=0;exitPerimeter=0;movable=1;rotatable=1;deletable=1;editable=1;locked=0;connectable=1;" edge="1" parent="1" source="rTS5UrFBCIcpq6L8_h2i-31" target="rTS5UrFBCIcpq6L8_h2i-37">
          <mxGeometry relative="1" as="geometry" />
        </mxCell>
        <mxCell id="rTS5UrFBCIcpq6L8_h2i-31" value="V&lt;div&gt;o&lt;/div&gt;&lt;div&gt;t&lt;/div&gt;&lt;div&gt;i&lt;/div&gt;&lt;div&gt;n&lt;/div&gt;&lt;div&gt;g&lt;/div&gt;" style="rounded=1;whiteSpace=wrap;html=1;strokeColor=default;align=center;verticalAlign=middle;spacingLeft=0;fontFamily=Helvetica;fontSize=12;fontColor=default;fontStyle=5;fillColor=#FFFFFF;horizontal=1;movable=1;resizable=1;rotatable=1;deletable=1;editable=1;locked=0;connectable=1;points=[[0,0.5,0,0,0],[1,0.5,0,0,0]];gradientColor=#CCCCCC;gradientDirection=radial;" vertex="1" parent="1">
          <mxGeometry x="786" y="1370" width="50" height="200" as="geometry" />
        </mxCell>
        <mxCell id="rTS5UrFBCIcpq6L8_h2i-32" value="Primary Model&lt;br&gt;(All Data)" style="rounded=1;whiteSpace=wrap;html=1;align=center;verticalAlign=middle;spacingLeft=0;fontFamily=Helvetica;fontSize=12;fontStyle=5;points=[[0,0.5,0,0,0],[0.9,0.5,0,0,0]];gradientColor=#CCCCCC;gradientDirection=radial;fillColor=#FFFFFF;movable=1;resizable=1;rotatable=1;deletable=1;editable=1;locked=0;connectable=1;" vertex="1" parent="1">
          <mxGeometry x="614" y="1446" width="120" height="60" as="geometry" />
        </mxCell>
        <mxCell id="rTS5UrFBCIcpq6L8_h2i-33" value="&lt;font size=&quot;1&quot; style=&quot;&quot;&gt;Submodel&lt;/font&gt;" style="rounded=1;whiteSpace=wrap;html=1;strokeColor=#000000;align=center;verticalAlign=middle;spacingLeft=6;fontFamily=Helvetica;fontSize=12;fontColor=default;fontStyle=0;fillColor=#B3FF66;points=[[0,0,0,0,0],[0,0.25,0,0,0],[0,0.5,0,0,0],[0,0.75,0,0,0],[0,1,0,0,0],[0.25,0,0,0,0],[0.25,1,0,0,0],[0.5,0,0,0,0],[0.5,1,0,0,0],[0.75,0,0,0,0],[0.75,1,0,0,0],[0.9,0.5,0,0,0]];shadow=0;opacity=50;strokeWidth=2;gradientColor=#79AB44;gradientDirection=east;movable=1;resizable=1;rotatable=1;deletable=1;editable=1;locked=0;connectable=1;" vertex="1" parent="1">
          <mxGeometry x="614" y="1526" width="120" height="30" as="geometry" />
        </mxCell>
        <mxCell id="rTS5UrFBCIcpq6L8_h2i-34" value="&lt;font size=&quot;1&quot; style=&quot;&quot;&gt;Submodel&lt;/font&gt;" style="rounded=1;whiteSpace=wrap;html=1;strokeColor=#996185;align=center;verticalAlign=middle;spacingLeft=6;fontFamily=Helvetica;fontSize=12;fontStyle=0;fillColor=#FFA3CE;points=[[0,0,0,0,0],[0,0.25,0,0,0],[0,0.5,0,0,0],[0,0.75,0,0,0],[0,1,0,0,0],[0.25,0,0,0,0],[0.25,1,0,0,0],[0.5,0,0,0,0],[0.5,1,0,0,0],[0.75,0,0,0,0],[0.75,1,0,0,0],[0.9,0.5,0,0,0]];shadow=0;opacity=75;strokeWidth=2;gradientColor=#C981A3;gradientDirection=east;movable=1;resizable=1;rotatable=1;deletable=1;editable=1;locked=0;connectable=1;" vertex="1" parent="1">
          <mxGeometry x="614" y="1596" width="120" height="30" as="geometry" />
        </mxCell>
        <mxCell id="rTS5UrFBCIcpq6L8_h2i-35" value="&lt;font style=&quot;&quot; size=&quot;1&quot;&gt;Submodel&lt;/font&gt;" style="rounded=1;whiteSpace=wrap;html=1;strokeColor=#000000;align=center;verticalAlign=middle;spacingLeft=0;fontFamily=Helvetica;fontSize=12;fontStyle=0;fillColor=#CCCCFF;points=[[0,0,0,0,0],[0,0.25,0,0,0],[0,0.5,0,0,0],[0,0.75,0,0,0],[0,1,0,0,0],[0.25,0,0,0,0],[0.25,1,0,0,0],[0.5,0,0,0,0],[0.5,1,0,0,0],[0.75,0,0,0,0],[0.75,1,0,0,0],[0.9,0.5,0,0,0]];gradientColor=#9999BF;gradientDirection=east;perimeterSpacing=1;strokeWidth=1;opacity=50;movable=1;resizable=1;rotatable=1;deletable=1;editable=1;locked=0;connectable=1;" vertex="1" parent="1">
          <mxGeometry x="614" y="1390" width="120" height="30" as="geometry" />
        </mxCell>
        <UserObject label="&lt;font size=&quot;1&quot; style=&quot;&quot;&gt;Submodel&lt;/font&gt;" tooltip="Small RF: Additional part of warm-started primary model trained on minority sparse class and similarity subsample of subsample." id="rTS5UrFBCIcpq6L8_h2i-36">
          <mxCell style="rounded=1;whiteSpace=wrap;html=1;strokeColor=#000000;align=center;verticalAlign=middle;spacingLeft=6;fontFamily=Helvetica;fontSize=12;fontColor=default;fontStyle=0;fillColor=#fff2cc;points=[[0,0,0,0,0],[0,0.25,0,0,0],[0,0.5,0,0,0],[0,0.75,0,0,0],[0,1,0,0,0],[0.25,0,0,0,0],[0.25,1,0,0,0],[0.5,0,0,0,0],[0.5,1,0,0,0],[0.75,0,0,0,0],[0.75,1,0,0,0],[0.9,0.5,0,0,0]];shadow=0;opacity=50;strokeWidth=2;gradientColor=#ffd966;gradientDirection=east;movable=1;resizable=1;rotatable=1;deletable=1;editable=1;locked=0;connectable=1;" vertex="1" parent="1">
            <mxGeometry x="614" y="1326" width="120" height="30" as="geometry" />
          </mxCell>
        </UserObject>
        <mxCell id="rTS5UrFBCIcpq6L8_h2i-37" value="Pred" style="ellipse;whiteSpace=wrap;html=1;fillColor=#FFFFFF;rounded=1;spacingLeft=0;fontStyle=5;resizable=1;strokeColor=default;align=center;verticalAlign=middle;fontFamily=Helvetica;fontSize=12;fontColor=default;gradientColor=#CCCCCC;gradientDirection=radial;movable=1;rotatable=1;deletable=1;editable=1;locked=0;connectable=1;" vertex="1" parent="1">
          <mxGeometry x="892" y="1450" width="41" height="40" as="geometry" />
        </mxCell>
        <mxCell id="rTS5UrFBCIcpq6L8_h2i-38" value="asfd" style="shape=table;startSize=0;container=1;collapsible=1;childLayout=tableLayout;fixedRows=1;rowLines=0;fontStyle=0;align=center;resizeLast=1;html=1;swimlaneLine=1;rounded=0;strokeWidth=1;labelBorderColor=none;points=[[0,0,0,0,0],[0,0.25,0,0,0],[0,0.5,0,0,0],[0,0.75,0,0,0],[0,1,0,0,0],[0.25,0,0,0,0],[0.25,1,0,0,0],[0.5,0,0,0,0],[0.5,1,0,0,0],[0.75,0,0,0,0],[0.75,1,0,0,0],[0.9,0.5,0,0,0],[1,0,0,0,0],[1,0.25,0,0,0],[1,0.75,0,0,0],[1,1,0,0,0]];fillColor=#000000;swimlaneFillColor=none;movable=1;resizable=1;rotatable=1;deletable=1;editable=1;locked=0;connectable=1;" vertex="1" parent="1">
          <mxGeometry x="416" y="1314" width="110" height="48" as="geometry" />
        </mxCell>
        <mxCell id="rTS5UrFBCIcpq6L8_h2i-39" value="" style="shape=tableRow;horizontal=0;startSize=0;swimlaneHead=0;swimlaneBody=0;collapsible=0;dropTarget=0;points=[[0,0.5],[1,0.5]];portConstraint=eastwest;top=0;left=0;right=0;bottom=1;swimlaneLine=0;perimeterSpacing=2;fillStyle=hatch;fillColor=none;movable=1;resizable=1;rotatable=1;deletable=1;editable=1;locked=0;connectable=1;" vertex="1" parent="rTS5UrFBCIcpq6L8_h2i-38">
          <mxGeometry width="110" height="20" as="geometry" />
        </mxCell>
        <mxCell id="rTS5UrFBCIcpq6L8_h2i-40" value="" style="shape=partialRectangle;connectable=1;top=0;left=0;bottom=0;right=0;fontStyle=1;overflow=hidden;whiteSpace=wrap;html=1;gradientDirection=radial;fillStyle=auto;movable=1;resizable=1;rotatable=1;deletable=1;editable=1;locked=0;" vertex="1" parent="rTS5UrFBCIcpq6L8_h2i-39">
          <mxGeometry width="30" height="20" as="geometry">
            <mxRectangle width="30" height="20" as="alternateBounds" />
          </mxGeometry>
        </mxCell>
        <mxCell id="rTS5UrFBCIcpq6L8_h2i-41" value="" style="shape=partialRectangle;connectable=1;fillColor=#003366;top=0;left=0;bottom=0;right=0;align=center;spacingLeft=0;fontStyle=1;overflow=hidden;strokeColor=#000000;html=1;whiteSpace=wrap;labelBackgroundColor=none;verticalAlign=middle;fontFamily=Helvetica;fontSize=12;fontColor=#ffffff;labelBorderColor=none;gradientColor=#66B2FF;strokeWidth=2;perimeterSpacing=2;shadow=0;dashed=1;movable=1;resizable=1;rotatable=1;deletable=1;editable=1;locked=0;" vertex="1" parent="rTS5UrFBCIcpq6L8_h2i-39">
          <mxGeometry x="30" width="80" height="20" as="geometry">
            <mxRectangle width="80" height="20" as="alternateBounds" />
          </mxGeometry>
        </mxCell>
        <mxCell id="rTS5UrFBCIcpq6L8_h2i-42" style="shape=tableRow;horizontal=0;startSize=0;swimlaneHead=0;swimlaneBody=0;fillColor=none;collapsible=0;dropTarget=0;points=[[0,0.5],[1,0.5]];portConstraint=eastwest;top=0;left=0;right=0;bottom=0;movable=1;resizable=1;rotatable=1;deletable=1;editable=1;locked=0;connectable=1;" vertex="1" parent="rTS5UrFBCIcpq6L8_h2i-38">
          <mxGeometry y="20" width="110" height="28" as="geometry" />
        </mxCell>
        <mxCell id="rTS5UrFBCIcpq6L8_h2i-43" value="" style="shape=partialRectangle;connectable=1;fillColor=#CC0000;top=0;left=0;bottom=0;right=0;editable=1;overflow=hidden;whiteSpace=wrap;html=1;flipV=0;flipH=0;textDirection=ltr;horizontal=0;strokeColor=default;align=center;verticalAlign=middle;fontFamily=Helvetica;fontSize=12;fontColor=#FFFFFF;labelBackgroundColor=none;gradientColor=#FFCCCC;gradientDirection=east;movable=1;resizable=1;rotatable=1;deletable=1;locked=0;" vertex="1" parent="rTS5UrFBCIcpq6L8_h2i-42">
          <mxGeometry width="30" height="28" as="geometry">
            <mxRectangle width="30" height="28" as="alternateBounds" />
          </mxGeometry>
        </mxCell>
        <mxCell id="rTS5UrFBCIcpq6L8_h2i-44" style="shape=partialRectangle;connectable=1;top=0;left=0;bottom=0;right=0;align=left;spacingLeft=6;overflow=hidden;whiteSpace=wrap;html=1;fillColor=#FFCD28;strokeColor=default;fillStyle=solid;movable=1;resizable=1;rotatable=1;deletable=1;editable=1;locked=0;gradientColor=#B8941D;" vertex="1" parent="rTS5UrFBCIcpq6L8_h2i-42">
          <mxGeometry x="30" width="80" height="28" as="geometry">
            <mxRectangle width="80" height="28" as="alternateBounds" />
          </mxGeometry>
        </mxCell>
        <mxCell id="rTS5UrFBCIcpq6L8_h2i-45" style="edgeStyle=none;shape=flexArrow;rounded=1;jumpStyle=line;orthogonalLoop=1;jettySize=auto;html=1;shadow=0;strokeColor=default;strokeWidth=1;align=left;verticalAlign=middle;spacing=5;fontFamily=Helvetica;fontSize=12;fontColor=default;fontStyle=0;labelBorderColor=none;labelBackgroundColor=none;resizable=1;startSize=3;endArrow=classic;endSize=5;flowAnimation=0;fillColor=#FFCD28;gradientColor=#B8941D;gradientDirection=east;endWidth=6.8965517241379315;noJump=1;ignoreEdge=1;comic=0;linecap=round;orthogonal=0;backgroundOutline=0;snapToPoint=0;arcSize=20;sourcePerimeterSpacing=16;entryX=0;entryY=0.5;entryDx=0;entryDy=0;width=3;entryPerimeter=0;exitX=1;exitY=0.25;exitDx=0;exitDy=0;opacity=50;spacingLeft=6;fillStyle=solid;movable=1;rotatable=1;deletable=1;editable=1;locked=0;connectable=1;" edge="1" parent="1" source="rTS5UrFBCIcpq6L8_h2i-44" target="rTS5UrFBCIcpq6L8_h2i-36">
          <mxGeometry relative="1" as="geometry">
            <mxPoint x="581.4300000000001" y="1131.04" as="sourcePoint" />
            <mxPoint x="450" y="1391" as="targetPoint" />
          </mxGeometry>
        </mxCell>
        <mxCell id="rTS5UrFBCIcpq6L8_h2i-46" value="&lt;div&gt;Independently Trained&lt;/div&gt;&lt;div&gt;Submodels All Observations &lt;br&gt;Evaluated by Primary Model&lt;/div&gt;" style="text;html=1;align=center;verticalAlign=middle;resizable=1;points=[];autosize=1;strokeColor=none;fillColor=none;movable=1;rotatable=1;deletable=1;editable=1;locked=0;connectable=1;" vertex="1" parent="1">
          <mxGeometry x="589" y="1254" width="170" height="60" as="geometry" />
        </mxCell>
        <mxCell id="rTS5UrFBCIcpq6L8_h2i-47" value="&lt;div&gt;&lt;/div&gt;" style="text;html=1;align=center;verticalAlign=middle;resizable=1;points=[];autosize=1;strokeColor=none;fillColor=none;movable=1;rotatable=1;deletable=1;editable=1;locked=0;connectable=1;" vertex="1" parent="1">
          <mxGeometry x="461" y="1264" width="20" height="14" as="geometry" />
        </mxCell>
        <mxCell id="rTS5UrFBCIcpq6L8_h2i-48" value="Meta-estimator&lt;div&gt;Only Considers Trees&lt;br&gt;&lt;div&gt;In Applicable Models&lt;/div&gt;&lt;/div&gt;" style="text;html=1;align=center;verticalAlign=middle;resizable=1;points=[];autosize=1;strokeColor=none;fillColor=none;movable=1;rotatable=1;deletable=1;editable=1;locked=0;connectable=1;" vertex="1" parent="1">
          <mxGeometry x="741" y="1282" width="140" height="60" as="geometry" />
        </mxCell>
        <mxCell id="rTS5UrFBCIcpq6L8_h2i-49" value="Training Set Includes General &lt;br&gt;Population&amp;nbsp;&lt;span style=&quot;background-color: initial;&quot;&gt;Subsample Chosen&amp;nbsp;&lt;/span&gt;&lt;div&gt;&lt;span style=&quot;background-color: initial;&quot;&gt;by&amp;nbsp;&lt;/span&gt;&lt;span style=&quot;background-color: initial;&quot;&gt;Similarity with Subclass&lt;/span&gt;&lt;div&gt;&lt;div&gt;&lt;/div&gt;&lt;/div&gt;&lt;/div&gt;" style="text;html=1;align=center;verticalAlign=middle;resizable=1;points=[];autosize=1;strokeColor=none;fillColor=none;movable=1;rotatable=1;deletable=1;editable=1;locked=0;connectable=1;" vertex="1" parent="1">
          <mxGeometry x="376" y="1254" width="190" height="60" as="geometry" />
        </mxCell>
      </root>
    </mxGraphModel>
  </diagram>
</mxfile>
